<svg width="3485" height="1254" viewBox="0 0 3485 1254" fill="none" xmlns="http://www.w3.org/2000/svg">
<g clip-path="url(#clip0_6067_6501)">
<path d="M531.713 1081.47C528.033 1079.22 519.326 1075.26 515.191 1073.22C504.696 1068.09 494.277 1062.81 483.936 1057.37C437.051 1032.44 391.055 1005.87 346.032 977.717C323.666 963.75 299.569 949.459 279.8 931.984C263.105 917.227 250.646 899.121 241.55 878.872C230.918 855.201 231.905 833.556 231.921 808.427L231.956 756.491L231.958 595.706L231.975 429.876L231.912 375.444C231.902 364.773 231.61 352.431 232.313 341.868C233.34 328.227 236.545 314.84 241.805 302.213C253.058 275.652 271.793 252.937 295.729 236.838C304.029 231.269 314.426 225.734 323.277 220.757L362.967 198.482L396.991 179.399C405.006 174.912 419.65 164.296 428.242 167.952C434.662 170.683 433.512 182.365 433.492 188.1L433.351 574.355L433.313 632.42C433.291 641.31 432.82 657.396 433.686 665.815C434.049 669.403 434.881 672.917 436.162 676.285C451.055 715.246 523.481 715.105 558.67 715.111L600.112 715.062L696.437 715.105C715.706 715.081 743.37 712.785 760.331 720.561C774.904 727.204 786.226 739.377 791.791 754.397C795.49 764.53 796.984 783.126 794.51 794.123C793.836 797.111 785.717 796.572 782.564 796.566L574.818 796.481C560.573 796.462 514.997 795.066 503.346 798.648C492.021 802.126 482.545 809.97 477.007 820.44C470.059 833.574 471.682 851.214 471.67 865.891L471.644 911.661L471.637 969.304C471.637 981.384 471.365 995.32 472.173 1007.28C472.49 1012.45 473.407 1017.56 474.906 1022.52C483.43 1050.32 509.171 1067.85 533.701 1081.03L531.713 1081.47Z" fill="#1A8763"/>
<path d="M1018.55 477.348C1019.7 479.671 1019.3 497.473 1019.3 501.154L1019.29 540.797L1019.26 666.157L1019.28 781.222C1019.29 805.218 1020.89 832.288 1016.79 855.764C1005.2 922.266 949.318 955.275 897.823 988.811C848.349 1021.58 797.209 1051.74 744.606 1079.21C713.176 1095.33 678.116 1114.02 642.565 1118.74C637.391 1119.42 633.687 1118.17 629.86 1114.78C620.437 1102.02 626.211 1072.54 624.564 1056.87C623.914 1050.65 627.154 1036.52 631.489 1031.98C641.696 1021.29 657.426 1012.72 670.101 1004.54L769.08 940.47C791.582 925.897 820.072 912.5 832.006 887.971C839.403 872.755 838.27 858.047 838.252 841.705L838.239 798.262L838.221 635.175C907.718 594.376 968.899 540.83 1018.55 477.348Z" fill="#43459D"/>
<path d="M860.018 167.301C860.52 167.261 861.022 167.232 861.53 167.213C871.333 166.826 874.842 171.175 875.203 180.631C875.619 191.322 875.46 201.978 875.442 212.675L875.356 269.937L875.258 447.587C864.273 458.59 854.391 469.397 842.959 480.368C816.024 506.328 787.092 530.137 756.434 551.575L745.033 559.606L745.015 329.723L745.009 260.025C745.002 250.095 743.741 225.144 746.846 216.948C751.922 212.802 797.526 193.945 806.337 190.129L838.826 176.057C845.322 173.232 853.485 169.393 860.018 167.301Z" fill="#65B045"/>
<path d="M1068.01 288.301L1070.09 289.233C1072.28 292.334 1069.55 311.909 1069.09 316.796L1064.53 364.418L1060.52 406.994C1059.84 414.544 1059.25 422.467 1058.26 429.982C1057.88 432.885 1057.56 433.252 1055.81 435.079C1050.22 435.183 1032.54 413.934 1026.55 409.034C946.884 534.238 824.675 626.449 682.412 668.692C621.677 686.975 558.47 695.205 495.204 693.503C491.256 693.399 470.494 693.043 468.016 691.715L469.538 691.415C501.736 688.225 533.617 682.395 564.86 673.982C696.923 637.403 815.404 562.983 905.701 459.899C929.973 432.396 955.359 399.182 973.593 367.219C963.956 361.299 948.63 354.957 939.139 348.346C938.11 347.629 938.435 346.329 938.533 345.229C940.517 341.833 978.21 326.822 984.155 324.285L1068.01 288.301Z" fill="#7E3794"/>
<path d="M702.258 290.838C707.542 290.937 712.024 293.449 712.208 299.358C712.495 308.881 712.33 318.52 712.336 328.059V386.616L712.428 580.342C678.494 600.496 642.919 617.748 606.086 631.911L597.636 635.291L597.602 427.822L597.582 376.15C597.579 365.78 596.715 345.651 599.246 336.54C600.556 334.946 603.667 333.22 605.627 332.354C631.059 321.11 656.72 310.358 682.192 299.199C688.781 296.313 695.498 293.239 702.258 290.838Z" fill="#FFBB1B"/>
<path d="M555.078 410.881C557.812 410.566 562.14 410.598 563.66 412.944C567.848 419.41 566.265 438.654 566.26 445.774L566.217 495.183L566.293 645.915C531.764 656.526 507.622 661.589 472.558 666.849C467.933 667.566 462.802 667.994 461.269 662.679C459.143 655.307 460.61 643.704 460.563 636.032L460.463 559.464L460.414 496.706C460.411 483.758 459.191 466.135 462.339 453.558C462.66 452 465.61 450.153 466.982 449.564C496.288 436.98 525.577 422.859 555.078 410.881Z" fill="#EF851C"/>
<path d="M533.698 1081.03L539.935 1084.35L539.405 1084.04L540.46 1085.44C538.222 1085.01 533.891 1082.65 531.711 1081.47L533.698 1081.03Z" fill="#1A8763"/>
</g>
<path d="M1370.25 608.5V772.75C1370.25 778.25 1367.5 781 1362 781H1305C1299.5 781 1296.75 778.25 1296.75 772.75V373C1296.75 367 1299.5 364 1305 364H1311.75C1350.75 364 1370.25 386 1370.25 430V541.75H1534.5V373C1534.5 367 1537.25 364 1542.75 364H1549.5C1588.5 364 1608 386 1608 430V772.75C1608 778.25 1605.5 781 1600.5 781H1542.75C1537.25 781 1534.5 778.25 1534.5 772.75V608.5H1370.25ZM1692.68 781C1687.68 781 1685.18 778.25 1685.18 772.75V508C1685.18 502 1687.68 499 1692.68 499H1696.43C1736.43 499 1756.43 520.25 1756.43 562.75V772.75C1756.43 778.25 1753.68 781 1748.18 781H1692.68ZM1679.93 425.5C1679.93 413.5 1683.68 403.75 1691.18 396.25C1699.18 388.25 1708.93 384.25 1720.43 384.25C1731.93 384.25 1741.43 388.25 1748.93 396.25C1756.93 404.25 1760.93 414 1760.93 425.5C1760.93 437 1756.93 446.75 1748.93 454.75C1741.43 462.75 1731.93 466.75 1720.43 466.75C1708.93 466.75 1699.18 462.75 1691.18 454.75C1683.68 446.75 1679.93 437 1679.93 425.5ZM1820.98 699.25C1846.48 719.75 1873.98 730 1903.48 730C1933.98 730 1949.23 720.25 1949.23 700.75C1949.23 693.75 1945.98 688 1939.48 683.5C1932.98 678.5 1920.23 672.75 1901.23 666.25C1867.73 653.75 1844.73 641.5 1832.23 629.5C1819.73 617 1813.48 600.5 1813.48 580C1813.48 553 1823.23 531.75 1842.73 516.25C1862.73 500.75 1889.48 493 1922.98 493C1945.98 493 1965.48 496.75 1981.48 504.25C1994.98 509.75 2003.48 516.5 2006.98 524.5C2010.98 532.5 2010.98 543.25 2006.98 556.75L2004.73 565C2003.73 569 2001.73 571 1998.73 571C1997.73 571 1996.23 570.5 1994.23 569.5C1992.23 569 1990.98 568.5 1990.48 568C1966.48 556.5 1943.48 550.75 1921.48 550.75C1897.48 550.75 1885.48 559 1885.48 575.5C1885.48 582 1888.73 587.75 1895.23 592.75C1901.73 597.75 1914.48 603.75 1933.48 610.75C1967.48 623.75 1990.48 636.25 2002.48 648.25C2014.98 659.75 2021.23 675.25 2021.23 694.75C2021.23 720.75 2012.48 742.25 1994.98 759.25C1974.98 778.75 1947.23 788.5 1911.73 788.5C1883.23 788.5 1858.98 781.5 1838.98 767.5C1816.98 752 1805.98 733.25 1805.98 711.25C1805.98 701.25 1808.98 696.25 1814.98 696.25C1815.98 696.25 1817.48 696.75 1819.48 697.75C1819.98 698.25 1820.48 698.75 1820.98 699.25ZM2141.39 529C2159.89 504 2186.89 491.5 2222.39 491.5C2254.39 491.5 2280.39 501 2300.39 520C2323.89 542 2335.64 574.25 2335.64 616.75V772.75C2335.64 778.25 2332.89 781 2327.39 781H2271.89C2266.39 781 2263.64 778.25 2263.64 772.75V625.75C2263.64 580.75 2243.64 558.25 2203.64 558.25C2162.14 558.25 2141.39 581.5 2141.39 628V772.75C2141.39 778.25 2138.89 781 2133.89 781H2079.14C2073.64 781 2070.89 778.25 2070.89 772.75V373C2070.89 367 2073.64 364 2079.14 364H2082.89C2121.89 364 2141.39 385 2141.39 427V529ZM2609.95 745.75C2588.95 773.75 2559.7 787.75 2522.2 787.75C2484.2 787.75 2453.7 775 2430.7 749.5C2405.7 722 2393.2 685.25 2393.2 639.25C2393.2 599.25 2403.45 566 2423.95 539.5C2448.45 507.5 2481.7 491.5 2523.7 491.5C2563.2 491.5 2593.95 505 2615.95 532C2622.95 510 2640.7 499 2669.2 499H2672.95C2678.45 499 2681.2 502 2681.2 508V772.75C2681.2 778.25 2678.45 781 2672.95 781H2617.45C2612.45 781 2609.95 778.25 2609.95 772.75V745.75ZM2537.95 720.25C2560.45 720.25 2577.95 713.25 2590.45 699.25C2603.45 684.75 2609.95 664.75 2609.95 639.25C2609.95 614.25 2603.7 595 2591.2 581.5C2579.2 567.5 2561.7 560.5 2538.7 560.5C2516.7 560.5 2499.2 567.75 2486.2 582.25C2473.2 596.25 2466.7 615.25 2466.7 639.25C2466.7 663.75 2473.2 683.5 2486.2 698.5C2499.2 713 2516.45 720.25 2537.95 720.25ZM2821.66 746.5V772.75C2821.66 778.25 2819.16 781 2814.16 781H2757.91C2753.41 781 2751.16 778.25 2751.16 772.75V373C2751.16 367 2753.41 364 2757.91 364H2761.66C2801.66 364 2821.66 385 2821.66 427V535C2841.66 506 2871.16 491.5 2910.16 491.5C2946.66 491.5 2976.41 503.25 2999.41 526.75C3025.41 553.75 3038.41 591.25 3038.41 639.25C3038.41 678.75 3028.91 711.75 3009.91 738.25C2986.41 771.25 2953.16 787.75 2910.16 787.75C2871.66 787.75 2842.16 774 2821.66 746.5ZM2892.91 720.25C2914.91 720.25 2932.16 713 2944.66 698.5C2957.66 684 2964.16 664.25 2964.16 639.25C2964.16 615.25 2957.66 596.25 2944.66 582.25C2932.16 567.75 2914.91 560.5 2892.91 560.5C2870.41 560.5 2852.91 567.5 2840.41 581.5C2827.91 595 2821.66 614.25 2821.66 639.25C2821.66 664.25 2828.16 684 2841.16 698.5C2854.16 713 2871.41 720.25 2892.91 720.25ZM3104.2 781C3099.2 781 3096.7 778.25 3096.7 772.75V508C3096.7 502 3099.2 499 3104.2 499H3107.95C3147.95 499 3167.95 520.25 3167.95 562.75V772.75C3167.95 778.25 3165.2 781 3159.7 781H3104.2ZM3091.45 425.5C3091.45 413.5 3095.2 403.75 3102.7 396.25C3110.7 388.25 3120.45 384.25 3131.95 384.25C3143.45 384.25 3152.95 388.25 3160.45 396.25C3168.45 404.25 3172.45 414 3172.45 425.5C3172.45 437 3168.45 446.75 3160.45 454.75C3152.95 462.75 3143.45 466.75 3131.95 466.75C3120.45 466.75 3110.7 462.75 3102.7 454.75C3095.2 446.75 3091.45 437 3091.45 425.5ZM3315.75 716.5H3437.25C3442.25 716.5 3444.75 719.5 3444.75 725.5V772.75C3444.75 778.25 3442.25 781 3437.25 781H3232.5C3227 781 3224.25 778.25 3224.25 772.75V740.5C3224.25 732.5 3227.5 724.25 3234 715.75L3357 563.5H3237.75C3232.25 563.5 3229.5 560.75 3229.5 555.25V508C3229.5 502 3232.25 499 3237.75 499H3398.25C3414.75 499 3426.25 502.75 3432.75 510.25C3439.25 517.25 3442.5 529.75 3442.5 547.75C3442.5 557.75 3439.25 566.75 3432.75 574.75L3315.75 716.5Z" fill="#1A8763"/>
<defs>
<clipPath id="clip0_6067_6501">
<rect width="1254" height="1254" fill="white"/>
</clipPath>
</defs>
</svg>