<svg width="2167" height="425" viewBox="0 0 2167 425" fill="none" xmlns="http://www.w3.org/2000/svg">
<path d="M73.5 244.5V408.75C73.5 414.25 70.75 417 65.25 417H8.25C2.75 417 -5.36442e-07 414.25 -5.36442e-07 408.75V9C-5.36442e-07 3 2.75 4.29153e-06 8.25 4.29153e-06H15C54 4.29153e-06 73.5 22 73.5 66V177.75H237.75V9C237.75 3 240.5 4.29153e-06 246 4.29153e-06H252.75C291.75 4.29153e-06 311.25 22 311.25 66V408.75C311.25 414.25 308.75 417 303.75 417H246C240.5 417 237.75 414.25 237.75 408.75V244.5H73.5ZM395.93 417C390.93 417 388.43 414.25 388.43 408.75V144C388.43 138 390.93 135 395.93 135H399.68C439.68 135 459.68 156.25 459.68 198.75V408.75C459.68 414.25 456.93 417 451.43 417H395.93ZM383.18 61.5C383.18 49.5 386.93 39.75 394.43 32.25C402.43 24.25 412.18 20.25 423.68 20.25C435.18 20.25 444.68 24.25 452.18 32.25C460.18 40.25 464.18 50 464.18 61.5C464.18 73 460.18 82.75 452.18 90.75C444.68 98.75 435.18 102.75 423.68 102.75C412.18 102.75 402.43 98.75 394.43 90.75C386.93 82.75 383.18 73 383.18 61.5ZM524.227 335.25C549.727 355.75 577.227 366 606.727 366C637.227 366 652.477 356.25 652.477 336.75C652.477 329.75 649.227 324 642.727 319.5C636.227 314.5 623.477 308.75 604.477 302.25C570.977 289.75 547.977 277.5 535.477 265.5C522.977 253 516.727 236.5 516.727 216C516.727 189 526.477 167.75 545.977 152.25C565.977 136.75 592.727 129 626.227 129C649.227 129 668.727 132.75 684.727 140.25C698.227 145.75 706.727 152.5 710.227 160.5C714.227 168.5 714.227 179.25 710.227 192.75L707.977 201C706.977 205 704.977 207 701.977 207C700.977 207 699.477 206.5 697.477 205.5C695.477 205 694.227 204.5 693.727 204C669.727 192.5 646.727 186.75 624.727 186.75C600.727 186.75 588.727 195 588.727 211.5C588.727 218 591.977 223.75 598.477 228.75C604.977 233.75 617.727 239.75 636.727 246.75C670.727 259.75 693.727 272.25 705.727 284.25C718.227 295.75 724.477 311.25 724.477 330.75C724.477 356.75 715.727 378.25 698.227 395.25C678.227 414.75 650.477 424.5 614.977 424.5C586.477 424.5 562.227 417.5 542.227 403.5C520.227 388 509.227 369.25 509.227 347.25C509.227 337.25 512.227 332.25 518.227 332.25C519.227 332.25 520.727 332.75 522.727 333.75C523.227 334.25 523.727 334.75 524.227 335.25ZM844.641 165C863.141 140 890.141 127.5 925.641 127.5C957.641 127.5 983.641 137 1003.64 156C1027.14 178 1038.89 210.25 1038.89 252.75V408.75C1038.89 414.25 1036.14 417 1030.64 417H975.141C969.641 417 966.891 414.25 966.891 408.75V261.75C966.891 216.75 946.891 194.25 906.891 194.25C865.391 194.25 844.641 217.5 844.641 264V408.75C844.641 414.25 842.141 417 837.141 417H782.391C776.891 417 774.141 414.25 774.141 408.75V9C774.141 3 776.891 4.29153e-06 782.391 4.29153e-06H786.141C825.141 4.29153e-06 844.641 21 844.641 63V165ZM1313.2 381.75C1292.2 409.75 1262.95 423.75 1225.45 423.75C1187.45 423.75 1156.95 411 1133.95 385.5C1108.95 358 1096.45 321.25 1096.45 275.25C1096.45 235.25 1106.7 202 1127.2 175.5C1151.7 143.5 1184.95 127.5 1226.95 127.5C1266.45 127.5 1297.2 141 1319.2 168C1326.2 146 1343.95 135 1372.45 135H1376.2C1381.7 135 1384.45 138 1384.45 144V408.75C1384.45 414.25 1381.7 417 1376.2 417H1320.7C1315.7 417 1313.2 414.25 1313.2 408.75V381.75ZM1241.2 356.25C1263.7 356.25 1281.2 349.25 1293.7 335.25C1306.7 320.75 1313.2 300.75 1313.2 275.25C1313.2 250.25 1306.95 231 1294.45 217.5C1282.45 203.5 1264.95 196.5 1241.95 196.5C1219.95 196.5 1202.45 203.75 1189.45 218.25C1176.45 232.25 1169.95 251.25 1169.95 275.25C1169.95 299.75 1176.45 319.5 1189.45 334.5C1202.45 349 1219.7 356.25 1241.2 356.25ZM1535.41 352.5H1617.91C1642.41 352.5 1660.16 347.75 1671.16 338.25C1682.16 328.75 1687.66 313.25 1687.66 291.75C1687.66 272.75 1681.41 257.75 1668.91 246.75C1656.91 235.75 1640.16 230.25 1618.66 230.25H1535.41V352.5ZM1535.41 168H1620.16C1656.16 168 1674.16 150.25 1674.16 114.75C1674.16 81.75 1654.91 65.25 1616.41 65.25H1535.41V168ZM1683.16 200.25C1707.16 206.25 1726.41 218.25 1740.91 236.25C1755.91 254.25 1763.41 275.25 1763.41 299.25C1763.41 334.25 1753.41 361.75 1733.41 381.75C1709.91 405.25 1674.16 417 1626.16 417H1470.16C1464.66 417 1461.91 414.25 1461.91 408.75V9C1461.91 3 1464.66 4.29153e-06 1470.16 4.29153e-06H1613.41C1653.41 4.29153e-06 1684.91 8.25 1707.91 24.75C1734.41 43.75 1747.66 71.5 1747.66 108C1747.66 151.5 1726.16 182.25 1683.16 200.25ZM1825.62 417C1820.62 417 1818.12 414.25 1818.12 408.75V144C1818.12 138 1820.62 135 1825.62 135H1829.37C1869.37 135 1889.37 156.25 1889.37 198.75V408.75C1889.37 414.25 1886.62 417 1881.12 417H1825.62ZM1812.87 61.5C1812.87 49.5 1816.62 39.75 1824.12 32.25C1832.12 24.25 1841.87 20.25 1853.37 20.25C1864.87 20.25 1874.37 24.25 1881.87 32.25C1889.87 40.25 1893.87 50 1893.87 61.5C1893.87 73 1889.87 82.75 1881.87 90.75C1874.37 98.75 1864.87 102.75 1853.37 102.75C1841.87 102.75 1832.12 98.75 1824.12 90.75C1816.62 82.75 1812.87 73 1812.87 61.5ZM2037.16 352.5H2158.66C2163.66 352.5 2166.16 355.5 2166.16 361.5V408.75C2166.16 414.25 2163.66 417 2158.66 417H1953.91C1948.41 417 1945.66 414.25 1945.66 408.75V376.5C1945.66 368.5 1948.91 360.25 1955.41 351.75L2078.41 199.5H1959.16C1953.66 199.5 1950.91 196.75 1950.91 191.25V144C1950.91 138 1953.66 135 1959.16 135H2119.66C2136.16 135 2147.66 138.75 2154.16 146.25C2160.66 153.25 2163.91 165.75 2163.91 183.75C2163.91 193.75 2160.66 202.75 2154.16 210.75L2037.16 352.5Z" fill="#1A8763"/>
</svg>